<?xml version="1.0"?>
<svg version="1.1" xmlns="http://www.w3.org/2000/svg" width="521" height="200" style=""><path fill="#3289c7" d="M17.978515625,119.287109375q0-8.3984375,0.4638671875-16.6015625t1.1474609375-16.6015625q0.1953125-2.197265625,0.244140625-4.248046875t0.4638671875-3.5888671875t1.46484375-2.44140625t3.2470703125-0.9033203125q1.416015625,0,2.9541015625,0.48828125t1.5380859375,2.294921875q0,6.787109375-0.5615234375,13.3544921875t-0.7568359375,13.0615234375q5.322265625-6.005859375,11.376953125-11.2060546875t12.841796875-10.2783203125q0.9765625-0.68359375,2.490234375-0.732421875q0.48828125,0,0.8544921875,0.048828125t0.7568359375,0.146484375q0.48828125,0.1953125,1.0009765625,0.4638671875t0.5126953125,0.7568359375q0,0.390625-0.439453125,0.68359375q-5.078125,4.1015625-10.0341796875,8.349609375t-9.4482421875,9.08203125q0.5859375,1.123046875,1.0009765625,2.099609375t0.9033203125,2.099609375q4.1015625,9.716796875,7.0068359375,19.8974609375t6.1767578125,20.1904296875q0.29296875,1.123046875,0.8544921875,2.3193359375t1.0498046875,2.392578125t0.8544921875,2.24609375t0.3662109375,1.7333984375q0,0.87890625-0.5615234375,1.3916015625t-1.2939453125,0.8056640625t-1.5869140625,0.390625t-1.5869140625,0.09765625q-1.708984375,0-3.0517578125-0.48828125t-2.1240234375-2.197265625q-3.61328125-11.5234375-6.9580078125-23.046875t-6.7626953125-23.2421875q-1.123046875,1.123046875-2.24609375,2.8076171875t-2.05078125,3.1005859375q0,7.32421875,0.341796875,14.55078125t1.171875,14.55078125q0.1953125,2.099609375,0.6591796875,4.19921875t0.4638671875,4.296875q0,1.611328125-1.66015625,2.24609375t-3.662109375,0.634765625q-2.197265625,0-3.2958984375-0.439453125t-1.5625-1.1474609375t-0.5615234375-1.5625t-0.29296875-1.6357421875q-1.123046875-7.71484375-1.416015625-15.2587890625t-0.29296875-15.1611328125z M68.01123046875,88.0859375q0-2.294921875,0.1220703125-4.541015625t0.4150390625-4.443359375q0.1953125-1.123046875,1.7333984375-1.611328125t2.5634765625-0.48828125l1.171875,0.09765625q1.416015625,0.1953125,2.8564453125-0.1953125t2.8564453125-0.390625q3.3203125,0,7.421875,0.732421875t7.6904296875,2.490234375t6.0302734375,4.6142578125t2.44140625,7.0556640625t-2.5390625,7.8369140625t-6.396484375,6.396484375t-8.30078125,4.3212890625t-8.154296875,1.5625q0.390625,9.423828125,1.0986328125,18.701171875t2.4169921875,18.5546875l0.09765625,0.634765625q0,0.68359375-0.6103515625,1.123046875t-1.4404296875,0.7080078125t-1.6845703125,0.3662109375t-1.3916015625,0.09765625q-1.220703125,0-2.9541015625-0.4638671875t-2.1240234375-1.8310546875q-1.123046875-4.296875-1.7578125-9.4482421875t-0.927734375-10.7666015625t-0.4150390625-11.3037109375t-0.1220703125-11.1083984375l0-10.986328125q0-1.806640625-0.048828125-3.759765625t-0.048828125-3.955078125z M77.23974609375,80.17578125q0,6.689453125,0.146484375,13.3544921875t0.341796875,13.3544921875q2.880859375-0.5859375,5.8837890625-2.0751953125t5.419921875-3.5400390625t3.90625-4.6630859375t1.4892578125-5.4931640625q0-2.587890625-1.2939453125-4.638671875t-3.3447265625-3.515625q-2.001953125-1.416015625-4.541015625-2.197265625q-2.24609375-0.68359375-4.39453125-0.68359375l-0.537109375,0z M113.3076171875,134.423828125q0-10.595703125,0.9521484375-21.2158203125t3.9794921875-20.9228515625q0.87890625-3.076171875,2.294921875-6.0791015625t3.466796875-5.3466796875t4.8828125-3.80859375t6.73828125-1.46484375l1.025390625,0.09765625q4.19921875,0.5859375,6.201171875,3.3935546875t2.001953125,7.0068359375q0,1.123046875-0.2685546875,2.8076171875t-0.8544921875,3.2470703125t-1.5869140625,2.6611328125t-2.5146484375,1.0986328125q-0.68359375-0.09765625-1.2451171875-0.244140625t-1.0498046875-0.634765625q0.78125-1.708984375,1.3916015625-3.564453125t0.6103515625-4.248046875q0-0.87890625-0.146484375-2.24609375t-0.5615234375-2.7099609375t-1.0986328125-2.34375t-1.904296875-1.0009765625q-3.076171875,0-5.17578125,3.4423828125t-3.515625,8.7890625t-2.099609375,11.81640625t-1.0498046875,12.5t-0.4150390625,10.888671875t-0.048828125,6.8603515625q0,2.34375-0.048828125,5.17578125l0,0.634765625q0.048828125,2.490234375,0.341796875,4.736328125q0.390625,2.5390625,1.513671875,4.39453125t3.515625,2.1484375q0.732421875,0.09765625,1.416015625,0.09765625q2.83203125,0,5.126953125-1.611328125q2.83203125-2.001953125,5.029296875-5.2001953125t3.90625-7.03125t3.1494140625-7.2509765625t2.8076171875-5.6640625t2.83203125-2.24609375q0.48828125,0,1.46484375,0.1953125t0.9765625,0.927734375q0,0.1953125-0.09765625,0.537109375t-0.244140625,0.537109375q-1.318359375,5.17578125-3.3447265625,10.7421875t-5.17578125,10.1318359375t-7.71484375,7.4462890625t-10.9619140625,2.880859375q-4.58984375,0-7.4462890625-1.7333984375t-4.39453125-4.638671875t-2.099609375-6.5673828125t-0.5615234375-7.421875z"/><path fill="#" d=""/></svg>
